<?xml version="1.0" standalone="no"?>
<!DOCTYPE svg PUBLIC "-//W3C//DTD SVG 20010904//EN"
 "http://www.w3.org/TR/2001/REC-SVG-20010904/DTD/svg10.dtd">
<svg version="1.0" xmlns="http://www.w3.org/2000/svg"
 width="348.000000pt" height="568.000000pt" viewBox="0 0 348.000000 568.000000"
 preserveAspectRatio="xMidYMid meet">
<g transform="translate(0.000000,568.000000) scale(0.100000,-0.100000)"
fill="#000000" stroke="none">
<path d="M0 3862 l0 -1819 27 4 c301 34 718 106 926 158 26 7 37 -1 136 -101
110 -112 241 -283 241 -315 0 -10 -9 -23 -19 -29 -16 -8 -21 -5 -30 22 -6 17
-30 56 -53 86 l-42 55 -96 -7 c-52 -4 -122 -11 -155 -15 -33 -5 -95 -12 -137
-16 -69 -6 -78 -5 -78 10 0 11 5 15 15 11 8 -3 14 -1 12 5 -2 10 13 19 93 59
36 17 39 20 15 15 -24 -4 -19 1 24 26 l54 31 -31 14 c-18 7 -48 16 -67 20 -19
3 -32 10 -29 15 3 5 -8 6 -23 4 -27 -5 -72 -12 -406 -56 -154 -20 -159 -20
-173 -2 -12 16 -13 4 -7 -94 l6 -113 -26 0 c-14 0 -29 5 -33 12 -11 18 -13 68
-2 68 5 0 7 -3 5 -7 -3 -5 -1 -17 3 -28 5 -14 7 -7 7 23 -1 23 -5 42 -10 42
-4 0 -5 -5 -1 -12 4 -7 3 -8 -4 -4 -7 4 -12 18 -12 32 0 23 -3 24 -65 24 -63
0 -65 -1 -65 -26 0 -16 4 -23 12 -18 7 5 8 3 2 -7 -12 -19 -14 -39 -4 -39 5 0
15 6 22 13 32 29 45 8 17 -29 -5 -6 -6 -14 -2 -18 4 -4 -5 -5 -19 -2 l-28 5 0
-699 0 -699 72 30 c40 17 143 57 228 89 85 32 205 78 265 103 123 51 366 140
495 182 74 24 245 88 305 114 11 5 83 32 160 59 146 52 168 61 740 289 193 77
358 143 367 146 19 7 18 35 -1 47 -19 11 -5 29 19 23 22 -6 28 12 8 20 -10 3
-10 9 -1 25 11 18 10 23 -5 31 -15 9 -15 12 -2 20 23 16 1 30 -52 32 -27 2
-48 4 -48 6 0 2 16 11 35 19 20 8 33 19 30 24 -8 12 19 52 28 43 4 -3 7 -1 7
5 0 7 14 12 30 12 17 0 30 5 30 12 0 6 3 8 6 5 4 -4 19 4 35 17 16 13 46 27
69 31 42 7 53 20 23 28 -10 2 -5 3 10 1 16 -2 25 0 22 6 -3 5 1 7 9 4 9 -3 27
4 42 15 l27 21 -29 0 -29 0 25 13 c14 7 26 10 28 6 2 -4 17 -3 35 2 18 5 48 9
68 9 23 0 42 7 54 20 10 11 28 20 40 20 11 0 26 5 32 11 7 7 68 14 157 17
l146 5 0 84 c0 76 -2 87 -22 104 -26 21 -58 25 -58 7 0 -6 -2 -9 -5 -7 -2 3 2
34 10 69 7 36 16 81 20 101 4 29 11 38 30 43 l25 6 0 1000 c0 660 -3 1000 -10
1000 -5 0 -10 21 -10 48 0 34 3 43 10 32 7 -10 9 67 7 230 l-2 245 -170 71
c-649 271 -1328 560 -1407 600 l-47 24 -926 0 -925 0 0 -1818z m1995 486 c14
-6 25 -14 25 -18 0 -4 11 -5 24 -3 13 3 26 1 29 -4 3 -4 7 -78 8 -163 l4 -155
-150 -12 c-204 -15 -258 -16 -249 -1 4 7 3 8 -5 4 -6 -4 -9 -11 -6 -16 3 -4
-2 -11 -11 -14 -10 -4 -13 -2 -8 6 4 7 -22 -19 -59 -57 -50 -53 -66 -65 -64
-48 2 12 6 25 9 28 3 3 2 23 -3 43 -5 20 -9 70 -9 111 0 73 0 73 25 69 17 -4
25 -1 25 8 0 18 9 18 29 0 21 -18 61 -4 61 22 0 27 11 34 25 15 7 -9 24 -17
38 -19 21 -2 27 2 27 17 0 10 6 19 14 19 22 0 28 17 16 39 -9 18 -6 21 27 30
21 6 47 11 58 11 35 0 2 19 -39 22 -48 4 -57 22 -19 35 28 9 57 9 126 0 42 -6
59 9 32 30 -23 16 -14 17 20 1z m290 -39 c101 -14 222 -45 205 -52 -13 -4 -12
-6 1 -6 20 -1 29 -47 29 -148 l0 -71 -72 -6 c-40 -3 -132 -8 -205 -11 l-131
-5 -6 73 c-3 39 -7 112 -8 160 l-3 89 33 -6 c18 -2 30 -1 27 4 -3 5 9 4 27 -1
18 -5 65 -14 103 -20z m822 -35 c-2 -2 -32 0 -65 4 -34 5 -62 5 -62 0 0 -4 9
-9 20 -9 11 -1 23 -2 28 -3 4 -1 30 -6 59 -10 39 -6 52 -12 56 -28 5 -19 2
-20 -51 -15 l-57 6 55 -12 55 -12 7 -150 c4 -83 6 -154 5 -159 -2 -5 -17 10
-33 35 l-30 44 -62 -3 -62 -3 0 170 c0 126 3 170 12 173 14 5 131 -22 125 -28z
m196 -20 c38 -4 57 -11 57 -20 0 -8 -8 -14 -17 -15 -15 0 -14 -2 3 -9 19 -7
22 -17 23 -76 2 -91 11 -96 11 -6 0 51 4 72 13 72 9 0 9 2 0 8 -6 4 -9 19 -6
35 17 87 35 -38 38 -266 2 -128 0 -150 -14 -155 -25 -9 -28 -19 -26 -78 1 -36
-3 -54 -11 -54 -13 0 -25 103 -12 108 13 6 9 29 -6 35 -8 3 -22 -1 -33 -8 -16
-13 -16 -16 -3 -25 12 -9 10 -10 -9 -8 -14 2 -26 9 -29 17 -3 8 0 11 6 7 15
-9 23 7 11 24 -6 11 -9 11 -9 2 0 -10 -3 -10 -14 0 -7 7 -12 18 -9 24 2 7 -1
15 -8 20 -7 4 -10 3 -6 -3 4 -5 -3 -19 -13 -31 -24 -25 -26 -42 -5 -42 19 0
19 -14 0 -30 -8 -7 -12 -17 -8 -23 3 -6 1 -7 -5 -3 -17 10 -26 74 -13 90 8 10
9 16 1 21 -16 10 -30 -4 -23 -23 3 -9 3 -14 -1 -11 -10 10 -14 40 -21 207 l-6
152 23 1 23 2 -22 4 c-15 3 -23 12 -23 25 0 19 4 20 53 15 l52 -6 -42 12 c-80
23 -54 27 80 11z m-555 -683 c142 -29 218 -71 337 -188 55 -54 116 -122 135
-151 24 -35 46 -56 67 -63 18 -6 44 -24 58 -40 28 -34 34 -59 10 -39 -9 7 -18
10 -21 7 -6 -5 50 -199 73 -256 16 -39 33 -172 21 -165 -4 3 -8 21 -8 40 0 53
-24 102 -55 110 -21 5 -33 0 -57 -22 -16 -16 -36 -40 -43 -54 -19 -38 -44
-169 -51 -275 l-7 -96 -67 72 c-49 52 -72 70 -84 66 -11 -5 -15 -3 -10 5 21
34 -188 -41 -351 -125 -22 -12 -42 -22 -45 -22 -43 -11 -59 -19 -54 -26 3 -5
-6 -9 -20 -9 -14 0 -28 -6 -33 -12 -5 -8 -10 16 -14 57 -3 46 -6 7 -7 -112 -2
-172 -3 -182 -22 -188 -11 -4 -34 -18 -52 -33 l-31 -26 7 29 c4 17 10 86 13
155 8 193 -30 364 -100 440 -18 20 -29 31 -24 26 17 -24 4 -24 -40 0 -39 21
-57 25 -99 21 -28 -3 -69 -14 -91 -25 -36 -17 -41 -17 -51 -3 -9 14 -16 10
-52 -24 -22 -22 -57 -73 -77 -112 -20 -40 -39 -73 -42 -73 -4 0 -7 -8 -8 -17
0 -10 -10 -61 -21 -113 -36 -172 -38 -289 -4 -217 8 16 10 -24 9 -160 l-2
-182 -25 5 c-14 3 -31 7 -38 10 -16 5 -7 344 15 502 8 62 12 123 9 136 -3 13
-24 45 -46 72 -22 27 -43 59 -46 71 -11 43 72 174 160 254 l41 36 -42 22 c-44
22 -93 26 -128 11 -13 -6 -3 -7 30 -4 l50 4 -50 -25 c-54 -27 -52 -30 10 -15
22 5 48 7 58 4 29 -9 4 -29 -62 -49 -33 -10 -76 -31 -96 -47 -37 -31 -84 -111
-94 -163 -5 -23 -14 -31 -41 -37 -277 -61 -536 -109 -557 -103 -14 3 -24 8
-22 10 2 2 67 15 144 28 158 29 386 82 414 97 25 13 56 100 36 100 -27 0 -269
-61 -295 -75 -15 -8 -30 -12 -32 -9 -3 3 -58 -4 -123 -16 -118 -20 -163 -25
-153 -15 3 3 79 21 169 39 273 57 446 107 434 126 -5 8 25 36 71 68 11 7 -7
-1 -38 -17 l-58 -31 13 27 c7 16 31 35 62 49 27 13 43 24 35 24 -30 0 -120
-50 -165 -91 -70 -65 -147 -79 -373 -72 -97 3 -183 9 -191 13 -8 4 26 26 95
60 352 171 553 239 939 320 174 37 178 38 115 40 -36 1 -76 5 -90 9 -44 13
135 22 275 15 l131 -7 19 69 c26 101 71 244 88 284 20 47 49 72 95 80 58 12
71 11 170 -9z m-358 -46 c0 -3 -12 -34 -26 -70 -24 -59 -28 -64 -39 -48 -12
16 -30 18 -157 17 -139 -1 -189 -8 -388 -59 -18 -5 -21 -4 -10 3 23 15 248 78
420 118 85 20 157 38 159 40 6 6 41 5 41 -1z m-1285 -844 c56 -7 58 -8 33 -18
-52 -23 -428 -101 -428 -89 0 8 99 82 135 100 32 17 148 20 260 7z m599 -636
c-4 -8 -10 -15 -16 -15 -5 0 -7 -4 -4 -9 7 -11 -46 -23 -207 -47 -109 -17
-118 -17 -134 -1 -15 15 -15 17 8 25 13 5 67 17 119 27 52 9 113 20 135 25 69
14 105 12 99 -5z"/>
<path d="M2718 3553 c6 -2 10 -9 7 -14 -4 -5 2 -6 11 -2 12 4 15 3 10 -5 -4
-7 -2 -10 7 -6 23 8 123 -35 155 -67 17 -17 60 -84 97 -150 l67 -119 45 0 45
0 -27 48 c-15 26 -43 68 -61 95 -19 26 -34 50 -34 54 0 14 113 -103 141 -146
16 -25 29 -40 29 -35 0 35 -161 216 -177 200 -7 -7 -39 35 -35 47 1 5 -2 6 -8
2 -5 -3 -22 2 -38 13 -29 21 -213 92 -234 91 -10 0 -10 -2 0 -6z"/>
<path d="M2480 3345 c-7 -26 -13 -53 -12 -59 0 -6 3 -37 7 -68 5 -39 3 -58 -4
-58 -6 0 -11 20 -11 48 0 61 -15 87 -28 51 -25 -66 -35 -111 -26 -117 16 -11
63 -101 74 -142 5 -20 22 -50 37 -66 l26 -29 13 35 c19 52 17 69 -12 102 -34
42 -21 52 73 53 112 2 232 31 243 59 5 11 9 15 9 8 1 -10 5 -10 24 0 12 7 24
14 25 15 10 5 -72 193 -83 193 -3 0 6 -22 20 -50 24 -48 36 -92 15 -60 -7 11
-43 16 -157 20 -102 4 -138 9 -117 14 26 7 31 12 26 29 -3 12 -7 16 -10 9 -5
-17 -22 -15 -22 3 0 9 -6 12 -17 8 -11 -4 -14 -3 -9 5 5 8 2 10 -8 6 -9 -4
-16 -1 -16 6 0 7 -7 10 -15 6 -8 -3 -18 2 -23 10 -7 12 -12 4 -22 -31z"/>
<path d="M3440 1810 c0 -5 -18 -13 -40 -16 -38 -6 -54 -27 -27 -37 6 -2 -24
-3 -68 -1 -44 2 -72 1 -62 -2 10 -3 17 -15 17 -30 0 -21 -3 -24 -25 -18 -20 5
-25 2 -26 -12 0 -15 -2 -16 -7 -4 -9 19 -54 20 -66 1 -4 -7 -11 -9 -15 -4 -3
4 -22 6 -41 2 l-35 -6 35 -2 c19 -1 44 -6 54 -10 16 -6 11 -10 -24 -19 -52
-13 -68 -8 -19 6 29 8 21 10 -48 10 -47 1 -83 -3 -83 -9 0 -5 11 -7 24 -3 14
3 33 1 43 -5 14 -8 11 -9 -16 -4 -23 4 -32 3 -27 -5 3 -6 -8 -15 -29 -22 -19
-6 -35 -16 -35 -21 0 -12 5 -12 47 6 38 16 140 20 161 6 10 -6 4 -12 -20 -21
-42 -17 -207 -87 -323 -138 -380 -166 -500 -218 -565 -247 -41 -19 -109 -47
-150 -63 -41 -17 -102 -42 -135 -57 -83 -38 -746 -318 -880 -372 -60 -25 -157
-64 -215 -88 -58 -23 -172 -72 -255 -107 -82 -36 -248 -107 -367 -158 l-218
-92 0 -134 0 -134 1740 0 1740 0 0 910 c0 903 0 910 -20 910 -11 0 -20 -4 -20
-10z"/>
</g>
</svg>
